<svg id="Layer_1" data-name="Layer 1" xmlns="http://www.w3.org/2000/svg" viewBox="0 0 69.26 90.91"><path class="cls-1" fill={colors.informativeColor} fill-rule="evenodd" d="M53.4,46.49c0-1.74.51-2.93,2.15-2.93a1.55,1.55,0,0,1,1.72,1.74c0,1-1.19,1.62-1.92,2.07-1.82,1.1-3.87,2.18-5.05,3.84a5.35,5.35,0,0,0-1,3.52H61.61V51.25H55.16v0c2.68-1.64,6.24-2.78,6.24-6.42,0-3-2.35-4.48-5.81-4.48-3.82,0-6.26,2.25-6,6.16Z" transform="translate(-21.41 -10.21)"/><path class="cls-1" fill={colors.informativeColor} fill-rule="evenodd" d="M49.47,72.2H29.08A7.92,7.92,0,0,1,24.86,71a7.4,7.4,0,0,1-2.53-2.66,7.21,7.21,0,0,1-.92-3.54,7.62,7.62,0,0,1,1.21-4.09l9.13-15.81L30.14,44l5.68-3.37-.18,6.56-1.55-.9L24.93,62.12l0,0a5.06,5.06,0,0,0-.8,2.66,4.58,4.58,0,0,0,2.18,3.9,5.24,5.24,0,0,0,2.79.77H49.47ZM37.75,34.44,49.53,14.18a7.6,7.6,0,0,1,3-3,7.27,7.27,0,0,1,7.08,0,7.56,7.56,0,0,1,3,3h0L73.45,33,75,32.11l.17,6.56L69.59,35.3l1.53-.9L60.26,15.5v0a5,5,0,0,0-1.94-2,4.62,4.62,0,0,0-4.48,0,5,5,0,0,0-1.94,2v0L40.09,35.8ZM62.23,74l-5.76-3.19,5.76-3.19v1.84H83a4.89,4.89,0,0,0,2.69-.65,4.6,4.6,0,0,0,1.61-1.61A4.74,4.74,0,0,0,88,65a5.21,5.21,0,0,0-.74-2.8h0L77,44.57l2.34-1.35L89.54,60.85a7.79,7.79,0,0,1,1.13,4.27,7.46,7.46,0,0,1-1,3.48,7.3,7.3,0,0,1-2.56,2.56,7.63,7.63,0,0,1-4.17,1H62.23Z" transform="translate(-21.41 -10.21)"/><path fill={colors.informativeColor} d="M41.14,87.37V79.28h2.63a9.87,9.87,0,0,1,1.94.11,2.22,2.22,0,0,1,1.17.8,2.52,2.52,0,0,1,.47,1.58A2.78,2.78,0,0,1,47.08,83a2.17,2.17,0,0,1-.69.8,2.37,2.37,0,0,1-.85.38,9.08,9.08,0,0,1-1.7.12H42.78v3.05Zm1.64-6.72v2.29h.89A4,4,0,0,0,45,82.81a1.08,1.08,0,0,0,.52-.39,1.11,1.11,0,0,0,.18-.63,1,1,0,0,0-.26-.73,1.13,1.13,0,0,0-.66-.36,7.51,7.51,0,0,0-1.17,0Z" transform="translate(-21.41 -10.21)"/><polygon fill={colors.informativeColor} points="27.28 77.16 27.28 69.06 33.29 69.06 33.29 70.43 28.92 70.43 28.92 72.23 32.98 72.23 32.98 73.59 28.92 73.59 28.92 75.8 33.45 75.8 33.45 77.16 27.28 77.16"/><path fill={colors.informativeColor} d="M63.54,87.38H61.77l-.71-1.84H57.82l-.67,1.84H55.41l3.16-8.1H60.3Zm-3-3.21-1.11-3-1.1,3Z" transform="translate(-21.41 -10.21)"/><path fill={colors.informativeColor} d="M64.4,79.28h3a6,6,0,0,1,1.54.15,2.74,2.74,0,0,1,1.22.74,3.61,3.61,0,0,1,.78,1.32,5.84,5.84,0,0,1,.26,1.91A5.45,5.45,0,0,1,71,85.12a3.73,3.73,0,0,1-.87,1.44,2.88,2.88,0,0,1-1.15.64,4.79,4.79,0,0,1-1.45.17H64.4ZM66,80.65V86h1.22a4.55,4.55,0,0,0,1-.08,1.58,1.58,0,0,0,.66-.33,1.67,1.67,0,0,0,.43-.79,5.28,5.28,0,0,0,.16-1.48,4.83,4.83,0,0,0-.16-1.44,1.75,1.75,0,0,0-.47-.78,1.5,1.5,0,0,0-.75-.39,7.84,7.84,0,0,0-1.34-.07Z" transform="translate(-21.41 -10.21)"/><polygon fill={colors.informativeColor} points="10.26 90.76 10.26 81.86 16.26 81.86 16.26 82.9 11.44 82.9 11.44 85.66 15.62 85.66 15.62 86.72 11.44 86.72 11.44 90.76 10.26 90.76"/><path fill={colors.informativeColor} d="M39.05,101v-8.9h4a5.26,5.26,0,0,1,1.81.24,1.92,1.92,0,0,1,1,.85,2.49,2.49,0,0,1,.38,1.34,2.22,2.22,0,0,1-.62,1.59,3.08,3.08,0,0,1-1.89.83,2.91,2.91,0,0,1,.71.45,5.88,5.88,0,0,1,1,1.18L46.9,101H45.41l-1.18-1.85c-.34-.54-.63-.94-.85-1.23a2.51,2.51,0,0,0-.6-.59,1.63,1.63,0,0,0-.54-.24,3.25,3.25,0,0,0-.65,0H40.22v4Zm1.17-5h2.54A3.82,3.82,0,0,0,44,95.83a1.37,1.37,0,0,0,.69-.53,1.44,1.44,0,0,0,.24-.8,1.32,1.32,0,0,0-.46-1A2.15,2.15,0,0,0,43,93.05H40.22Z" transform="translate(-21.41 -10.21)"/><path fill={colors.informativeColor} d="M46.86,101l3.42-8.9h1.27l3.64,8.9H53.85l-1-2.69H49.08l-1,2.69Zm2.57-3.66h3l-.93-2.46c-.28-.75-.5-1.36-.64-1.85a11.61,11.61,0,0,1-.47,1.7Z" transform="translate(-21.41 -10.21)"/><path fill={colors.informativeColor} d="M55.56,98.11l1.11-.1a2.31,2.31,0,0,0,.37,1.1,2,2,0,0,0,.9.7,3.44,3.44,0,0,0,1.36.26,3.12,3.12,0,0,0,1.19-.21,1.67,1.67,0,0,0,.77-.54,1.26,1.26,0,0,0,.25-.76,1.19,1.19,0,0,0-.24-.74,1.82,1.82,0,0,0-.8-.52c-.24-.09-.77-.24-1.58-.44a8,8,0,0,1-1.73-.55,2.37,2.37,0,0,1-.95-.83,2,2,0,0,1-.31-1.11,2.3,2.3,0,0,1,.38-1.26,2.39,2.39,0,0,1,1.12-.89,4.76,4.76,0,0,1,3.38,0,2.51,2.51,0,0,1,1.16.93,2.76,2.76,0,0,1,.44,1.41l-1.13.08a1.83,1.83,0,0,0-.61-1.27A2.44,2.44,0,0,0,59.08,93a2.46,2.46,0,0,0-1.55.4,1.15,1.15,0,0,0-.49.94,1,1,0,0,0,.34.79,4.57,4.57,0,0,0,1.78.63,12.26,12.26,0,0,1,2,.57,2.7,2.7,0,0,1,1.15.91,2.27,2.27,0,0,1,.36,1.27,2.44,2.44,0,0,1-.4,1.34,2.62,2.62,0,0,1-1.17,1,4,4,0,0,1-1.72.35,5,5,0,0,1-2-.35,2.84,2.84,0,0,1-1.28-1.06,2.93,2.93,0,0,1-.49-1.6" transform="translate(-21.41 -10.21)"/><path fill={colors.informativeColor} d="M70.44,97.85l1.17.3a3.92,3.92,0,0,1-1.33,2.21,3.66,3.66,0,0,1-2.35.76,4.26,4.26,0,0,1-2.35-.58,3.65,3.65,0,0,1-1.37-1.7,6.14,6.14,0,0,1-.47-2.39A5.29,5.29,0,0,1,64.27,94a3.72,3.72,0,0,1,1.51-1.58,4.43,4.43,0,0,1,2.16-.53,3.6,3.6,0,0,1,2.25.68,3.51,3.51,0,0,1,1.27,1.91l-1.16.27a2.74,2.74,0,0,0-.9-1.41,2.35,2.35,0,0,0-1.48-.44,2.88,2.88,0,0,0-1.71.48,2.55,2.55,0,0,0-1,1.33,5.56,5.56,0,0,0,.05,3.69,2.43,2.43,0,0,0,1,1.27,2.86,2.86,0,0,0,1.51.41,2.54,2.54,0,0,0,1.68-.56,3.06,3.06,0,0,0,.93-1.7" transform="translate(-21.41 -10.21)"/><path fill={colors.informativeColor} d="M72.53,96.63a4.87,4.87,0,0,1,1.19-3.47,4.08,4.08,0,0,1,3.08-1.25A4.28,4.28,0,0,1,79,92.5a3.86,3.86,0,0,1,1.51,1.64,5.74,5.74,0,0,1,0,4.82A3.74,3.74,0,0,1,79,100.57a4.39,4.39,0,0,1-2.16.55,4.25,4.25,0,0,1-2.25-.6A3.94,3.94,0,0,1,73,98.86a5,5,0,0,1-.51-2.23m1.22,0a3.6,3.6,0,0,0,.86,2.54,3,3,0,0,0,4.37,0,3.79,3.79,0,0,0,.86-2.65,4.47,4.47,0,0,0-.38-1.9,2.82,2.82,0,0,0-1.07-1.26,2.89,2.89,0,0,0-1.59-.45,3,3,0,0,0-2.15.87,3.81,3.81,0,0,0-.9,2.86" transform="translate(-21.41 -10.21)"/></svg>