<svg id="Layer_1" data-name="Layer 1" xmlns="http://www.w3.org/2000/svg" viewBox="0 0 65.67 77.16"><defs><style>.cls-1{fill:#1d1d1b;}</style></defs><path class="cls-1" d="M87.88,67.6v-.44a5.67,5.67,0,0,0-.36-1.83l-1.29-3.12A1.44,1.44,0,0,0,85,61.35h-7.3a1.45,1.45,0,0,0-1.28.86l-1.29,3.12a5.72,5.72,0,0,0-.36,1.82v.45a1.33,1.33,0,0,0,1.33,1.33H86.54a1.33,1.33,0,0,0,1.34-1.33m-2.94-5.3a.54.54,0,0,1,.41.27l1.28,3.12a4.63,4.63,0,0,1,.29,1.47v.44a.38.38,0,0,1-.38.38H76.05a.38.38,0,0,1-.37-.38v-.44A4.91,4.91,0,0,1,76,65.69l1.29-3.12a.54.54,0,0,1,.4-.27ZM31.05,23.69A5.73,5.73,0,1,0,36.78,18a5.73,5.73,0,0,0-5.73,5.73M58.07,51a2.8,2.8,0,1,0,0-5.6H52l-.68-1.49-.25-.56L47.2,34.72a5.33,5.33,0,0,0-5-3.21l-10.79,0a5.82,5.82,0,0,0-5.8,5.8v21a2.89,2.89,0,0,0,2.82,2.93,2.93,2.93,0,0,0,.9-.15V91.58a3.42,3.42,0,1,0,6.84,0V65.15a.86.86,0,0,1,.84-.86.84.84,0,0,1,.84.86V91.58a3.42,3.42,0,1,0,6.84,0V42.73s2.13,4.83,2.73,6.09A3.1,3.1,0,0,0,50.32,51Zm9.5,17H57.08a.37.37,0,0,1-.38-.37v-.45A4.62,4.62,0,0,1,57,65.69l1.29-3.12a.52.52,0,0,1,.4-.27h.13l.28,1.92L61,65.48l4.12-1.8L65,62.3h1a.52.52,0,0,1,.4.27l1.29,3.12A4.92,4.92,0,0,1,68,67.15v.45a.37.37,0,0,1-.38.37m3.76,26.2H54.19a.87.87,0,0,1-.88-.88V67.79a8.17,8.17,0,0,1,.46-2.45l1.89-5a1.66,1.66,0,0,1,1.4-1H58.4l.27,1.94a1.44,1.44,0,0,0-1.28.86L56.1,65.33a5.66,5.66,0,0,0-.36,1.82v.45a1.34,1.34,0,0,0,1.34,1.33H67.57A1.34,1.34,0,0,0,68.9,67.6v-.44a5.67,5.67,0,0,0-.36-1.83l-1.28-3.12A1.46,1.46,0,0,0,66,61.35H64.82l-.28-1.94h3a1.66,1.66,0,0,1,1.39,1l2.35,6.14Zm18.1,0H72.29V66.52l2.35-6.14a1.66,1.66,0,0,1,1.39-1H86.56a1.66,1.66,0,0,1,1.4,1l1.9,5a8.49,8.49,0,0,1,.45,2.45v25.5a.87.87,0,0,1-.88.88M88.85,60a2.6,2.6,0,0,0-2.29-1.57H76A2.6,2.6,0,0,0,73.75,60l-1.94,5.06L69.88,60a2.62,2.62,0,0,0-2.29-1.57H64.4L64,55.6l-1.94-1.26-4.13,1.79.34,2.33h-1.2A2.57,2.57,0,0,0,54.78,60l-1.91,5a9.42,9.42,0,0,0-.51,2.79v25.5a1.84,1.84,0,0,0,1.83,1.84H89.43a1.84,1.84,0,0,0,1.83-1.84V67.79A9.11,9.11,0,0,0,90.75,65ZM59.33,82l.27-.38.22.12,1.26.68-1.67-3-3.77.07,1.6.86.21.11-.28.38-.85,1.35a.92.92,0,0,0-.13.49.86.86,0,0,0,.11.45l.07.11h0l0,.07L57.46,85l0,.06h0l0,.06a0,0,0,0,1,0,0l0,0h0l0,0,0,0,0,0,0,0,0,0,0,0,0,0,0,0h0a1.39,1.39,0,0,0,.56.16h3.18V83.34H58.5Zm9.41.94s0,0,0,0a0,0,0,0,1,0,0s0,0,0,0,0,0,0,0,0,0,0,0,0,0,0,0v-.07a.43.43,0,0,1,0-.05v-.15h0a1.21,1.21,0,0,0-.16-.56L67,79.22l-1.92,1.2,1.68,2.66H64.66V81.23L62.8,84.44l1.86,2.9V85.53l.63,0,1.66,0a.94.94,0,0,0,.49-.15,1,1,0,0,0,.32-.33l.06-.12h0l.87-1.83v0l0-.07a0,0,0,0,0,0,0M62,78.61l3.61-.16,1.74-2.93-1.57.91-.18.1-.17-.38-.7-1.43a1.07,1.07,0,0,0-.35-.38,1,1,0,0,0-.45-.14h-.13l-2,0h-.43l0,0h0l0,0h-.08a1.47,1.47,0,0,0-.43.39L59,77.47,61,78.66,62.6,76l.68,1.39.19.38-.26.15Z" transform="translate(-25.6 -17.96)"/></svg>