<?xml version="1.0" encoding="utf-8"?>
<!-- Generator: Adobe Illustrator 27.0.0, SVG Export Plug-In . SVG Version: 6.00 Build 0)  -->
<svg version="1.1" id="Camada_1" xmlns="http://www.w3.org/2000/svg" xmlns:xlink="http://www.w3.org/1999/xlink" x="0px" y="0px"
	 viewBox="0 0 300 300" style="enable-background:new 0 0 300 300;" xml:space="preserve">
<style type="text/css">
	
		.st0{clip-path:url(#SVGID_00000087409986259002094420000012142854341352338109_);fill:none;stroke:#AF975B;stroke-width:13.2;stroke-miterlimit:10;}
	.st1{fill:#AF975B;}
	.st2{font-family:'Arial-BoldMT';}
	.st3{font-size:39.6px;}
	.st4{letter-spacing:1;}
	.st5{font-size:91.3991px;}
</style>
<g>
	<g>
		<defs>
			<rect id="SVGID_1_" x="0" y="0" width="300" height="300"/>
		</defs>
		<clipPath id="SVGID_00000098200983137492771520000000250012177821422256_">
			<use xlink:href="#SVGID_1_"  style="overflow:visible;"/>
		</clipPath>
		
			<path style="clip-path:url(#SVGID_00000098200983137492771520000000250012177821422256_);fill:none;stroke:#AF975B;stroke-width:13.2;stroke-miterlimit:10;" d="
			M167.59,207.24h60.11c17.74,0,28.93-19.07,20.3-34.56l-40.21-72.13 M80.4,128.87l-24.42,43.81c-8.64,15.49,2.56,34.56,20.3,34.56
			h41.61 M186.13,61.7l-13.84-24.83c-8.86-15.9-31.73-15.9-40.6,0L104.1,86.36"/>
	</g>
	<polygon class="st1" points="167.44,207.24 167.29,183.58 139.26,207.42 167.6,230.9 167.44,207.24 	"/>
	<polygon class="st1" points="78.61,131.96 100.43,143.22 92.02,105.97 56.78,120.71 78.61,131.96 	"/>
	<polygon class="st1" points="182.13,56.9 160.48,69.44 197.06,82.69 203.77,44.37 182.13,56.9 	"/>
	<text transform="matrix(1 0 0 1 93.0703 281.9922)" class="st1 st2 st3 st4">PEBD</text>
	<text transform="matrix(1 0 0 1 127.125 165.3516)" class="st1 st2 st5">4</text>
	<polygon class="st1" points="167.44,207.24 167.29,183.58 139.26,207.42 167.6,230.9 167.44,207.24 	"/>
	<polygon class="st1" points="78.61,131.96 100.43,143.22 92.02,105.97 56.78,120.71 78.61,131.96 	"/>
	<polygon class="st1" points="182.13,56.9 160.48,69.44 197.06,82.69 203.77,44.37 182.13,56.9 	"/>
</g>
</svg>
